<mxfile host="app.diagrams.net" agent="Mozilla/5.0 (Windows NT 10.0; Win64; x64) AppleWebKit/537.36 (KHTML, like Gecko) Chrome/135.0.0.0 Safari/537.36" version="26.2.14">
  <diagram name="PÃ¡gina-1" id="gCHlPiciweW2e8KgHg2W">
    <mxGraphModel dx="1426" dy="777" grid="1" gridSize="10" guides="1" tooltips="1" connect="1" arrows="1" fold="1" page="1" pageScale="1" pageWidth="827" pageHeight="1169" math="0" shadow="0">
      <root>
        <mxCell id="0" />
        <mxCell id="1" parent="0" />
        <mxCell id="KHV1YMvSl3jvnYvNKE1O-26" value="" style="edgeStyle=orthogonalEdgeStyle;rounded=0;orthogonalLoop=1;jettySize=auto;html=1;" edge="1" parent="1" source="KHV1YMvSl3jvnYvNKE1O-1" target="KHV1YMvSl3jvnYvNKE1O-12">
          <mxGeometry relative="1" as="geometry" />
        </mxCell>
        <mxCell id="KHV1YMvSl3jvnYvNKE1O-1" value="INICIO&lt;span style=&quot;color: rgba(0, 0, 0, 0); font-family: monospace; font-size: 0px; text-align: start; text-wrap-mode: nowrap;&quot;&gt;%3CmxGraphModel%3E%3Croot%3E%3CmxCell%20id%3D%220%22%2F%3E%3CmxCell%20id%3D%221%22%20parent%3D%220%22%2F%3E%3CmxCell%20id%3D%222%22%20value%3D%22INICIO%22%20style%3D%22strokeWidth%3D2%3Bhtml%3D1%3Bshape%3Dmxgraph.flowchart.start_1%3BwhiteSpace%3Dwrap%3BfillColor%3D%23d5e8d4%3BstrokeColor%3D%2382b366%3B%22%20vertex%3D%221%22%20parent%3D%221%22%3E%3CmxGeometry%20x%3D%22360%22%20y%3D%22370%22%20width%3D%22100%22%20height%3D%2260%22%20as%3D%22geometry%22%2F%3E%3C%2FmxCell%3E%3C%2Froot%3E%3C%2FmxGraphModel%3E&lt;/span&gt;" style="ellipse;whiteSpace=wrap;html=1;fillColor=#d5e8d4;strokeColor=#82b366;" vertex="1" parent="1">
          <mxGeometry x="354" y="290" width="120" height="80" as="geometry" />
        </mxCell>
        <mxCell id="KHV1YMvSl3jvnYvNKE1O-2" value="FIM" style="strokeWidth=2;html=1;shape=mxgraph.flowchart.start_1;whiteSpace=wrap;fillColor=#d5e8d4;strokeColor=#82b366;" vertex="1" parent="1">
          <mxGeometry x="540" y="320" width="100" height="60" as="geometry" />
        </mxCell>
        <mxCell id="KHV1YMvSl3jvnYvNKE1O-8" style="edgeStyle=orthogonalEdgeStyle;rounded=0;orthogonalLoop=1;jettySize=auto;html=1;exitX=0.5;exitY=1;exitDx=0;exitDy=0;entryX=0.5;entryY=0;entryDx=0;entryDy=0;" edge="1" parent="1" source="KHV1YMvSl3jvnYvNKE1O-4" target="KHV1YMvSl3jvnYvNKE1O-5">
          <mxGeometry relative="1" as="geometry" />
        </mxCell>
        <mxCell id="KHV1YMvSl3jvnYvNKE1O-4" value="I=1, I &amp;lt;=LINHA&lt;span style=&quot;background-color: transparent; color: light-dark(rgb(0, 0, 0), rgb(255, 255, 255));&quot;&gt;, I++&lt;/span&gt;" style="shape=hexagon;perimeter=hexagonPerimeter2;whiteSpace=wrap;html=1;fixedSize=1;fillColor=#fff2cc;strokeColor=#d6b656;" vertex="1" parent="1">
          <mxGeometry x="320.5" y="580" width="170" height="40" as="geometry" />
        </mxCell>
        <mxCell id="KHV1YMvSl3jvnYvNKE1O-7" style="edgeStyle=orthogonalEdgeStyle;rounded=0;orthogonalLoop=1;jettySize=auto;html=1;exitX=1;exitY=0.5;exitDx=0;exitDy=0;entryX=1;entryY=0.5;entryDx=0;entryDy=0;" edge="1" parent="1" source="KHV1YMvSl3jvnYvNKE1O-5" target="KHV1YMvSl3jvnYvNKE1O-4">
          <mxGeometry relative="1" as="geometry" />
        </mxCell>
        <mxCell id="KHV1YMvSl3jvnYvNKE1O-23" style="edgeStyle=orthogonalEdgeStyle;rounded=0;orthogonalLoop=1;jettySize=auto;html=1;exitX=0.5;exitY=1;exitDx=0;exitDy=0;entryX=0.5;entryY=0;entryDx=0;entryDy=0;" edge="1" parent="1" source="KHV1YMvSl3jvnYvNKE1O-5">
          <mxGeometry relative="1" as="geometry">
            <mxPoint x="405.5" y="730" as="targetPoint" />
          </mxGeometry>
        </mxCell>
        <mxCell id="KHV1YMvSl3jvnYvNKE1O-5" value="J=1, J &amp;lt;=COLUNA&lt;span style=&quot;background-color: transparent; color: light-dark(rgb(0, 0, 0), rgb(255, 255, 255));&quot;&gt;, J++&lt;/span&gt;" style="shape=hexagon;perimeter=hexagonPerimeter2;whiteSpace=wrap;html=1;fixedSize=1;fillColor=#fff2cc;strokeColor=#d6b656;" vertex="1" parent="1">
          <mxGeometry x="320.5" y="660" width="170" height="40" as="geometry" />
        </mxCell>
        <mxCell id="KHV1YMvSl3jvnYvNKE1O-12" value="MATRIZ A[LINHA][COLUNA]" style="rounded=0;whiteSpace=wrap;html=1;fillColor=#f5f5f5;fontColor=#333333;strokeColor=#666666;" vertex="1" parent="1">
          <mxGeometry x="326" y="410" width="176" height="60" as="geometry" />
        </mxCell>
        <mxCell id="KHV1YMvSl3jvnYvNKE1O-25" value="SOMA[I] = SOMA[I] + A[I][J]" style="rounded=0;whiteSpace=wrap;html=1;fillColor=#f5f5f5;fontColor=#333333;strokeColor=#666666;" vertex="1" parent="1">
          <mxGeometry x="317.5" y="730" width="176" height="60" as="geometry" />
        </mxCell>
      </root>
    </mxGraphModel>
  </diagram>
</mxfile>
